<?xml version="1.0" encoding="utf-8"?>
<!-- Generator: Adobe Illustrator 27.0.0, SVG Export Plug-In . SVG Version: 6.00 Build 0)  -->
<svg version="1.1" id="Layer_1" xmlns="http://www.w3.org/2000/svg" xmlns:xlink="http://www.w3.org/1999/xlink" x="0px" y="0px"
	 viewBox="0 0 512 512" style="enable-background:new 0 0 512 512;" xml:space="preserve">
<style type="text/css">
	.st0{fill:#414A5D;}
</style>
<path class="st0" d="M201.4,185.9V125h110.9v60.9H201.4z M201.4,226.4h110.9v60.9H201.4V226.4z M356.7,287.3v-60.9h110.9v60.9H356.7
	z M467.6,185.9H356.7V125h110.9V185.9z M201.4,43.9c-24.5,0-44.4,18.2-44.4,40.6v202.9c0,22.4,19.9,40.6,44.4,40.6h266.2
	c24.5,0,44.4-18.2,44.4-40.6V84.4c0-22.4-19.9-40.6-44.4-40.6H201.4z"/>
<path class="st0" d="M84,189.7c0-18.6,16.1-33.7,36-33.7s36,15.1,36,33.7s-16.1,33.7-36,33.7S84,208.3,84,189.7z M114,403.2V493
	c0,12.4-10.7,22.5-24,22.5s-24-10-24-22.5V336.4l-21.4,33.4c-6.8,10.6-21.6,14-32.9,7.7s-15-20.2-8.2-30.8l43.7-68.1
	c13-20.3,36.4-32.7,61.7-32.7h22.3c25.3,0,48.7,12.4,61.7,32.7l43.7,68.1c6.8,10.6,3.1,24.4-8.2,30.8s-26.1,2.9-32.9-7.7L174,336.4
	V493c0,12.4-10.7,22.5-24,22.5s-24-10-24-22.5v-89.9H114z"/>
</svg>
